{
	"asset":{
		"generator":"Khronos glTF Blender I/O v4.2.70",
		"version":"2.0"
	},
	"extensionsUsed":[
		"KHR_materials_specular"
	],
	"scene":0,
	"scenes":[
		{
			"name":"Scene",
			"nodes":[
				0,
				1,
				2,
				3,
				4,
				5
			]
		}
	],
	"nodes":[
		{
			"mesh":0,
			"name":"WaterBottle",
			"rotation":[
				0,
				1,
				0,
				0
			],
			"scale":[
				11.634424209594727,
				11.634424209594727,
				11.634424209594727
			],
			"translation":[
				2.2563252449035645,
				1.53599214553833,
				-2.105663776397705
			]
		},
		{
			"mesh":1,
			"name":"Grid"
		},
		{
			"mesh":2,
			"name":"Torus",
			"rotation":[
				-0.1892770379781723,
				-0.1357208490371704,
				0.37797659635543823,
				0.8960400819778442
			],
			"translation":[
				0.12888935208320618,
				1.0261949300765991,
				0.3004334270954132
			]
		},
		{
			"mesh":3,
			"name":"Icosphere",
			"rotation":[
				-0.15315555036067963,
				-0.011711805127561092,
				-0.044495996087789536,
				0.987130343914032
			],
			"translation":[
				1.9077832698822021,
				0.962160587310791,
				0
			]
		},
		{
			"mesh":4,
			"name":"Cone",
			"scale":[
				0.8520019054412842,
				0.6145309209823608,
				1
			],
			"translation":[
				-0.093802809715271,
				0.621468186378479,
				1.440881371498108
			]
		},
		{
			"mesh":5,
			"name":"puma-tennari",
			"rotation":[
				0.0838603749871254,
				0.2753506302833557,
				-0.02780584618449211,
				0.9572755098342896
			],
			"scale":[
				0.3046271800994873,
				0.3046271800994873,
				0.3046271800994873
			],
			"translation":[
				-1.1428163051605225,
				-2.1449830532073975,
				-2.701725482940674
			]
		}
	],
	"materials":[
		{
			"emissiveFactor":[
				1,
				1,
				1
			],
			"emissiveTexture":{
				"index":0
			},
			"name":"BottleMat",
			"normalTexture":{
				"index":1
			},
			"occlusionTexture":{
				"index":2
			},
			"pbrMetallicRoughness":{
				"baseColorTexture":{
					"index":3
				},
				"metallicRoughnessTexture":{
					"index":2
				}
			}
		},
		{
			"doubleSided":true,
			"name":"floor",
			"pbrMetallicRoughness":{
				"baseColorFactor":[
					0.802559494972229,
					0.29257404804229736,
					0.1328180879354477,
					1
				],
				"metallicFactor":0.7204545736312866,
				"roughnessFactor":0.2818181812763214
			}
		},
		{
			"doubleSided":true,
			"name":"donut",
			"pbrMetallicRoughness":{
				"baseColorFactor":[
					0.8026059865951538,
					0.7276970744132996,
					0.04074984788894653,
					1
				],
				"metallicFactor":0.6818181872367859,
				"roughnessFactor":0.6204545497894287
			}
		},
		{
			"doubleSided":true,
			"name":"Material.001",
			"pbrMetallicRoughness":{
				"baseColorFactor":[
					0.8028135299682617,
					0.03045484982430935,
					0.025353580713272095,
					1
				],
				"metallicFactor":0.5795454382896423,
				"roughnessFactor":0.35681819915771484
			}
		},
		{
			"doubleSided":true,
			"name":"Material.002",
			"pbrMetallicRoughness":{
				"baseColorFactor":[
					0.8001648187637329,
					0.06057004630565643,
					0.026409093290567398,
					1
				],
				"metallicFactor":0.8590909242630005,
				"roughnessFactor":0.6159090995788574
			}
		},
		{
			"doubleSided":true,
			"extensions":{
				"KHR_materials_specular":{
					"specularFactor":0
				}
			},
			"name":"puma-tennari",
			"pbrMetallicRoughness":{
				"baseColorTexture":{
					"index":4
				},
				"metallicFactor":0
			}
		}
	],
	"meshes":[
		{
			"name":"WaterBottle",
			"primitives":[
				{
					"attributes":{
						"POSITION":0,
						"NORMAL":1,
						"TEXCOORD_0":2
					},
					"indices":3,
					"material":0
				}
			]
		},
		{
			"name":"Grid",
			"primitives":[
				{
					"attributes":{
						"POSITION":4,
						"NORMAL":5,
						"TEXCOORD_0":6
					},
					"indices":7,
					"material":1
				}
			]
		},
		{
			"name":"Torus",
			"primitives":[
				{
					"attributes":{
						"POSITION":8,
						"NORMAL":9,
						"TEXCOORD_0":10
					},
					"indices":11,
					"material":2
				}
			]
		},
		{
			"name":"Icosphere",
			"primitives":[
				{
					"attributes":{
						"POSITION":12,
						"NORMAL":13,
						"TEXCOORD_0":14
					},
					"indices":15,
					"material":3
				}
			]
		},
		{
			"name":"Cone",
			"primitives":[
				{
					"attributes":{
						"POSITION":16,
						"NORMAL":17,
						"TEXCOORD_0":18
					},
					"indices":19,
					"material":4
				}
			]
		},
		{
			"name":"puma-tennari",
			"primitives":[
				{
					"attributes":{
						"POSITION":20,
						"NORMAL":21,
						"TEXCOORD_0":22
					},
					"indices":23,
					"material":5
				}
			]
		}
	],
	"textures":[
		{
			"sampler":0,
			"source":0
		},
		{
			"sampler":0,
			"source":1
		},
		{
			"sampler":0,
			"source":2
		},
		{
			"sampler":0,
			"source":3
		},
		{
			"sampler":0,
			"source":4
		}
	],
	"images":[
		{
			"mimeType":"image/png",
			"name":"WaterBottle_emissive",
			"uri":"WaterBottle_emissive.png"
		},
		{
			"mimeType":"image/png",
			"name":"WaterBottle_normal",
			"uri":"WaterBottle_normal.png"
		},
		{
			"mimeType":"image/png",
			"name":"WaterBottle_occlusionRoughnessMetallic",
			"uri":"WaterBottle_occlusionRoughnessMetallic.png"
		},
		{
			"mimeType":"image/png",
			"name":"WaterBottle_baseColor",
			"uri":"WaterBottle_baseColor.png"
		},
		{
			"mimeType":"image/jpeg",
			"name":"puma-tennari",
			"uri":"puma-tennari.jpg"
		}
	],
	"accessors":[
		{
			"bufferView":0,
			"componentType":5126,
			"count":2549,
			"max":[
				0.054450009018182755,
				0.13022033870220184,
				0.05445002391934395
			],
			"min":[
				-0.054450009018182755,
				-0.13022033870220184,
				-0.05445002391934395
			],
			"type":"VEC3"
		},
		{
			"bufferView":1,
			"componentType":5126,
			"count":2549,
			"type":"VEC3"
		},
		{
			"bufferView":2,
			"componentType":5126,
			"count":2549,
			"type":"VEC2"
		},
		{
			"bufferView":3,
			"componentType":5123,
			"count":13530,
			"type":"SCALAR"
		},
		{
			"bufferView":4,
			"componentType":5126,
			"count":2702,
			"max":[
				5,
				0,
				5
			],
			"min":[
				-5,
				0,
				-5
			],
			"type":"VEC3"
		},
		{
			"bufferView":5,
			"componentType":5126,
			"count":2702,
			"type":"VEC3"
		},
		{
			"bufferView":6,
			"componentType":5126,
			"count":2702,
			"type":"VEC2"
		},
		{
			"bufferView":7,
			"componentType":5123,
			"count":15000,
			"type":"SCALAR"
		},
		{
			"bufferView":8,
			"componentType":5126,
			"count":2304,
			"max":[
				1.25,
				0.25,
				1.25
			],
			"min":[
				-1.25,
				-0.25,
				-1.25
			],
			"type":"VEC3"
		},
		{
			"bufferView":9,
			"componentType":5126,
			"count":2304,
			"type":"VEC3"
		},
		{
			"bufferView":10,
			"componentType":5126,
			"count":2304,
			"type":"VEC2"
		},
		{
			"bufferView":11,
			"componentType":5123,
			"count":3456,
			"type":"SCALAR"
		},
		{
			"bufferView":12,
			"componentType":5126,
			"count":240,
			"max":[
				0.9510578513145447,
				1,
				0.9999999403953552
			],
			"min":[
				-0.9510578513145447,
				-1,
				-0.9999999403953552
			],
			"type":"VEC3"
		},
		{
			"bufferView":13,
			"componentType":5126,
			"count":240,
			"type":"VEC3"
		},
		{
			"bufferView":14,
			"componentType":5126,
			"count":240,
			"type":"VEC2"
		},
		{
			"bufferView":15,
			"componentType":5123,
			"count":240,
			"type":"SCALAR"
		},
		{
			"bufferView":16,
			"componentType":5126,
			"count":128,
			"max":[
				1,
				1,
				1
			],
			"min":[
				-1,
				-1,
				-1
			],
			"type":"VEC3"
		},
		{
			"bufferView":17,
			"componentType":5126,
			"count":128,
			"type":"VEC3"
		},
		{
			"bufferView":18,
			"componentType":5126,
			"count":128,
			"type":"VEC2"
		},
		{
			"bufferView":19,
			"componentType":5123,
			"count":186,
			"type":"SCALAR"
		},
		{
			"bufferView":20,
			"componentType":5126,
			"count":350019,
			"max":[
				8.961996078491211,
				14.674322128295898,
				3.5452449321746826
			],
			"min":[
				-7.921892166137695,
				6.836616039276123,
				-4.324269771575928
			],
			"type":"VEC3"
		},
		{
			"bufferView":21,
			"componentType":5126,
			"count":350019,
			"type":"VEC3"
		},
		{
			"bufferView":22,
			"componentType":5126,
			"count":350019,
			"type":"VEC2"
		},
		{
			"bufferView":23,
			"componentType":5125,
			"count":636348,
			"type":"SCALAR"
		}
	],
	"bufferViews":[
		{
			"buffer":0,
			"byteLength":30588,
			"byteOffset":0,
			"target":34962
		},
		{
			"buffer":0,
			"byteLength":30588,
			"byteOffset":30588,
			"target":34962
		},
		{
			"buffer":0,
			"byteLength":20392,
			"byteOffset":61176,
			"target":34962
		},
		{
			"buffer":0,
			"byteLength":27060,
			"byteOffset":81568,
			"target":34963
		},
		{
			"buffer":0,
			"byteLength":32424,
			"byteOffset":108628,
			"target":34962
		},
		{
			"buffer":0,
			"byteLength":32424,
			"byteOffset":141052,
			"target":34962
		},
		{
			"buffer":0,
			"byteLength":21616,
			"byteOffset":173476,
			"target":34962
		},
		{
			"buffer":0,
			"byteLength":30000,
			"byteOffset":195092,
			"target":34963
		},
		{
			"buffer":0,
			"byteLength":27648,
			"byteOffset":225092,
			"target":34962
		},
		{
			"buffer":0,
			"byteLength":27648,
			"byteOffset":252740,
			"target":34962
		},
		{
			"buffer":0,
			"byteLength":18432,
			"byteOffset":280388,
			"target":34962
		},
		{
			"buffer":0,
			"byteLength":6912,
			"byteOffset":298820,
			"target":34963
		},
		{
			"buffer":0,
			"byteLength":2880,
			"byteOffset":305732,
			"target":34962
		},
		{
			"buffer":0,
			"byteLength":2880,
			"byteOffset":308612,
			"target":34962
		},
		{
			"buffer":0,
			"byteLength":1920,
			"byteOffset":311492,
			"target":34962
		},
		{
			"buffer":0,
			"byteLength":480,
			"byteOffset":313412,
			"target":34963
		},
		{
			"buffer":0,
			"byteLength":1536,
			"byteOffset":313892,
			"target":34962
		},
		{
			"buffer":0,
			"byteLength":1536,
			"byteOffset":315428,
			"target":34962
		},
		{
			"buffer":0,
			"byteLength":1024,
			"byteOffset":316964,
			"target":34962
		},
		{
			"buffer":0,
			"byteLength":372,
			"byteOffset":317988,
			"target":34963
		},
		{
			"buffer":0,
			"byteLength":4200228,
			"byteOffset":318360,
			"target":34962
		},
		{
			"buffer":0,
			"byteLength":4200228,
			"byteOffset":4518588,
			"target":34962
		},
		{
			"buffer":0,
			"byteLength":2800152,
			"byteOffset":8718816,
			"target":34962
		},
		{
			"buffer":0,
			"byteLength":2545392,
			"byteOffset":11518968,
			"target":34963
		}
	],
	"samplers":[
		{
			"magFilter":9729,
			"minFilter":9987
		}
	],
	"buffers":[
		{
			"byteLength":14064360,
			"uri":"scene.bin"
		}
	]
}
