{
	"asset":{
		"generator":"Khronos glTF Blender I/O v4.2.70",
		"version":"2.0"
	},
	"extensionsUsed":[
		"KHR_materials_specular"
	],
	"scene":0,
	"scenes":[
		{
			"name":"Scene",
			"nodes":[
				0
			]
		}
	],
	"nodes":[
		{
			"mesh":0,
			"name":"puma-tennari",
			"rotation":[
				0.0838603749871254,
				0.2753506302833557,
				-0.02780584618449211,
				0.9572755098342896
			],
			"scale":[
				0.3046271800994873,
				0.3046271800994873,
				0.3046271800994873
			],
			"translation":[
				-1.1428163051605225,
				-2.1449830532073975,
				-2.701725482940674
			]
		}
	],
	"materials":[
		{
			"doubleSided":true,
			"extensions":{
				"KHR_materials_specular":{
					"specularFactor":0
				}
			},
			"name":"puma-tennari",
			"pbrMetallicRoughness":{
				"baseColorTexture":{
					"index":0
				},
				"metallicFactor":0
			}
		}
	],
	"meshes":[
		{
			"name":"puma-tennari",
			"primitives":[
				{
					"attributes":{
						"POSITION":0,
						"NORMAL":1,
						"TEXCOORD_0":2
					},
					"indices":3,
					"material":0
				}
			]
		}
	],
	"textures":[
		{
			"sampler":0,
			"source":0
		}
	],
	"images":[
		{
			"mimeType":"image/jpeg",
			"name":"puma-tennari",
			"uri":"puma-tennari.jpg"
		}
	],
	"accessors":[
		{
			"bufferView":0,
			"componentType":5126,
			"count":350019,
			"max":[
				8.961996078491211,
				14.674322128295898,
				3.5452449321746826
			],
			"min":[
				-7.921892166137695,
				6.836616039276123,
				-4.324269771575928
			],
			"type":"VEC3"
		},
		{
			"bufferView":1,
			"componentType":5126,
			"count":350019,
			"type":"VEC3"
		},
		{
			"bufferView":2,
			"componentType":5126,
			"count":350019,
			"type":"VEC2"
		},
		{
			"bufferView":3,
			"componentType":5125,
			"count":636348,
			"type":"SCALAR"
		}
	],
	"bufferViews":[
		{
			"buffer":0,
			"byteLength":4200228,
			"byteOffset":0,
			"target":34962
		},
		{
			"buffer":0,
			"byteLength":4200228,
			"byteOffset":4200228,
			"target":34962
		},
		{
			"buffer":0,
			"byteLength":2800152,
			"byteOffset":8400456,
			"target":34962
		},
		{
			"buffer":0,
			"byteLength":2545392,
			"byteOffset":11200608,
			"target":34963
		}
	],
	"samplers":[
		{
			"magFilter":9729,
			"minFilter":9987
		}
	],
	"buffers":[
		{
			"byteLength":13746000,
			"uri":"shoe.bin"
		}
	]
}
